<?xml version="1.0" encoding="utf-8"?>
<!-- Generator: Adobe Illustrator 23.0.1, SVG Export Plug-In . SVG Version: 6.00 Build 0)  -->
<svg version="1.1" id="Layer_1" xmlns="http://www.w3.org/2000/svg" xmlns:xlink="http://www.w3.org/1999/xlink" x="0px" y="0px"
	 viewBox="0 0 531 429" style="enable-background:new 0 0 531 429;" xml:space="preserve">
<style type="text/css">
	.st0{fill:#FFFFFF;}
</style>
<g>
	<path class="st0" d="M36,403c-19.2-46.9-30.7-97-24.7-148c6.3-53.6,24.9-104,57.9-147C132,26.1,241.3-11.7,340,21.3
		c27,9.1,52.4,23,75,40.7c27,21,49.4,47.4,66.6,77c19.4,33.4,31.7,70.7,36.3,109c4.7,39,1.5,78.3-9.3,116c-3.9,13.7-10,26.6-14.6,40
		c6.2-1.9,8-10.4,10-16c5.4-15.5,10.2-30.9,13.4-47c10.1-50.6,6.9-105-10.1-154c-4.8-13.9-10.5-28.2-17.7-41
		c-3.9-6.9-9.6-16.7-13.9-23.5c-3.1-4.9-14-19.2-17.5-23.5c-16.4-20.4-36.4-37.8-58.2-52.3C322.9-4.7,219.5-7,140,40.3
		C51.7,93.1-1.9,199.8,8,302c2.6,27,5.5,54.4,15.8,80C26.3,388.1,28.5,402.8,36,403z"/>
	<path class="st0" d="M319,412c13,0,12.3-7,19.6-14.4c4.8-4.9,14.4-1.2,18.6-7.6c7-11-16.7-14.2-20.7-19c-3.8-5-3.8-12.3-5.6-18h2
		c-1.5-4.4-4.5-22.9-1-22c-1.6-13.6,6.9-17,12.8-27.3c2.1-3.7,1.4-9.5,2.2-13.7h1.2l2,7c15.7-21.7,19.7-41.7,10-67l3,1l-9-8
		c2.3-9.7-3.4-11-6.4-19c-1.7-4.6-1-11-1.6-16c-12-7.6,12.2-26.8,15-34l4,2l4-6l2,2l5-6c-6.3,26.3-2.4,57-3,84
		c-0.4,14.6-0.7,29.3-1,44c-0.1,4-2.2,8.1-1.7,12c0.4,4,4.3,6.3,4.7,10c0.4,4.6-4,9.8-4,15h10c0.5-44.7-3.5-94.9,2.6-141
		c2.7-20.3-0.6-37.5,20.4-49c11,29.6,0.2,60.8-5,91c-4.4,27-3.2,54-5.1,81c-0.9,13-4.6,26-4.9,39c-0.2,9.2-0.4,19.6,6.3,27
		c10.6,11.2,32.5,6,39.1-7c9.1-17.7-7.1-35.6-17.5-48.3c-6.1-7.5-15.3-14.9-7-24.7v-2c-11-9.2-5.2-28.3-4-41
		c2.9-25.3,11.8-50.6,13-76c0.4-8.9,1-19.2-0.3-28c-0.9-5.2-5.2-10.9-5.1-16c0.1-5,6.9-9,8.6-14c3.5-10-1.6-21.7-5.4-30.7
		c-1.3-2.9-0.8-5.8-3.9-7.6c-11.9-7-25.2,8.9-37.9,8.3c-11.3-0.8-17.6-12.7-29-13l1-3c-26.7,1.8-56,0.4-74.7,24.2
		c-3.5,4.4-7.5,9.4-9.3,14.8c-1.7,5.1-1.2,11.5-4.5,16c-6,8.3-25,11.6-24.3,24H234c-4,2.8-5.1,8.6-7,13c-7.3,17.7-4.5,28.7-3,47
		l11.2,7.2L252,205l-21,17l3-1l-11,8v1l2,1l-10,5v1h3l-14,10c-3.1,11-25,21.2-34,27.6c-12.6,8.8-27.5,16.4-39,26.6
		c-22.4,20.1-29.5,50.8-20,78.8c-9.3,0-18.3-2.4-23.5-11c-8.7-14.2,2.2-32.9,18.5-33c-0.5-4.4-2-6-6-8c-2-9.7-17-4.4-23-2l1-3
		c-20,10-35,39.4-17.6,58.7C74.6,397.6,101.2,401,120,393c5.2,10,19.9,18.4,31,19v1H12v3h507v-3H319V412z M426.2,348
		c-8.9,16.1-27,7.8-28.2-8c-0.8-12.5,3.9-24.6,4-37C413.2,310.1,434.3,333.4,426.2,348z M376,310v-6l1,6H376z M380,284v2l-7,2l-1-4
		H380z M297,413h-56v-1c4.4,0,8.7,0.2,13-0.8c13.4-3,19.8-13.7,5.8-23.2c-5.4-3.6-13.6-2.8-19.8-3.9c-3.8-0.7-8.3-1.6-8.8-6.1
		c-1.5-14.6,19.6-19,26.8-28h1l-1,4l20-11l-3,13c5.3,4.6,1.9,22,0,28l1,12h1l1-3h1c1.9,7.1,11,17,18,19V413z"/>
</g>
<path class="st0" d="M274,384l1,1L274,384"/>
</svg>
